0
SECTION
2
HEADER
9
$INSUNITS
70
4
0
ENDSEC
0
SECTION
2
TABLES
0
TABLE
2
LTYPE
0
LTYPE
72
65
70
0
2
CONTINUOUS
3
______
73
0
40
0
0
LTYPE
72
65
70
0
2
DASHED
3
_ _ _ 
73
2
40
7.5
49
5
49
-2.5
0
LTYPE
72
65
70
0
2
DOTTED
3
. . . 
73
2
40
1.5
49
0.5
49
-1
0
ENDTAB
0
TABLE
2
LAYER
0
ENDTAB
0
ENDSEC
0
SECTION
2
ENTITIES
0
LINE
8
0
6
CONTINUOUS
10
-9.525
20
-17.025
11
47.625
21
-17.025
0
ARC
8
0
6
CONTINUOUS
10
47.625
20
-9.525
40
7.5
50
270
51
360
0
LINE
8
0
6
CONTINUOUS
10
55.125
20
-9.525
11
55.125
21
-7.5
0
LINE
8
0
6
CONTINUOUS
10
55.125
20
-7.5
11
66.675
21
-7.5
0
ARC
8
0
6
CONTINUOUS
10
66.675
20
0
40
7.5
50
270
51
360
0
LINE
8
0
6
CONTINUOUS
10
74.175
20
0
11
74.175
21
19.05
0
ARC
8
0
6
CONTINUOUS
10
66.675
20
19.05
40
7.5
50
0
51
90
0
LINE
8
0
6
CONTINUOUS
10
66.675
20
26.55
11
47.625
21
26.55
0
ARC
8
0
6
CONTINUOUS
10
47.625
20
19.05
40
7.5
50
90
51
124.1642126
0
ARC
8
0
6
CONTINUOUS
10
38.575
20
19.525
40
7.5
50
409.8268267
51
90
0
LINE
8
0
6
CONTINUOUS
10
36.075
20
27.025
11
38.575
21
27.025
0
LINE
8
0
6
CONTINUOUS
10
36.075
20
27.025
11
36.075
21
28.575
0
ARC
8
0
6
CONTINUOUS
10
28.575
20
28.575
40
7.5
50
0
51
90
0
LINE
8
0
6
CONTINUOUS
10
-9.525
20
36.075
11
28.575
21
36.075
0
ARC
8
0
6
CONTINUOUS
10
-9.525
20
28.575
40
7.5
50
90
51
180
0
LINE
8
0
6
CONTINUOUS
10
-17.025
20
-9.525
11
-17.025
21
28.575
0
ARC
8
0
6
CONTINUOUS
10
-9.525
20
-9.525
40
7.5
50
180
51
270
0
ENDSEC
0
EOF