0
SECTION
2
HEADER
9
$INSUNITS
70
4
0
ENDSEC
0
SECTION
2
TABLES
0
TABLE
2
LTYPE
0
LTYPE
72
65
70
0
2
CONTINUOUS
3
______
73
0
40
0
0
LTYPE
72
65
70
0
2
DASHED
3
_ _ _ 
73
2
40
7.5
49
5
49
-2.5
0
LTYPE
72
65
70
0
2
DOTTED
3
. . . 
73
2
40
1.5
49
0.5
49
-1
0
ENDTAB
0
TABLE
2
LAYER
0
ENDTAB
0
ENDSEC
0
SECTION
2
ENTITIES
0
LINE
8
0
6
CONTINUOUS
10
-7
20
-7
11
7
21
-7
0
LINE
8
0
6
CONTINUOUS
10
7
20
-7
11
7
21
7
0
LINE
8
0
6
CONTINUOUS
10
7
20
7
11
-7
21
7
0
LINE
8
0
6
CONTINUOUS
10
-7
20
7
11
-7
21
-7
0
LINE
8
0
6
CONTINUOUS
10
-7
20
12.05
11
7
21
12.05
0
LINE
8
0
6
CONTINUOUS
10
7
20
12.05
11
7
21
26.05
0
LINE
8
0
6
CONTINUOUS
10
7
20
26.05
11
-7
21
26.05
0
LINE
8
0
6
CONTINUOUS
10
-7
20
26.05
11
-7
21
12.05
0
LINE
8
0
6
CONTINUOUS
10
12.05
20
-7
11
26.05
21
-7
0
LINE
8
0
6
CONTINUOUS
10
26.05
20
-7
11
26.05
21
7
0
LINE
8
0
6
CONTINUOUS
10
26.05
20
7
11
12.05
21
7
0
LINE
8
0
6
CONTINUOUS
10
12.05
20
7
11
12.05
21
-7
0
LINE
8
0
6
CONTINUOUS
10
12.05
20
12.05
11
26.05
21
12.05
0
LINE
8
0
6
CONTINUOUS
10
26.05
20
12.05
11
26.05
21
26.05
0
LINE
8
0
6
CONTINUOUS
10
26.05
20
26.05
11
12.05
21
26.05
0
LINE
8
0
6
CONTINUOUS
10
12.05
20
26.05
11
12.05
21
12.05
0
LINE
8
0
6
CONTINUOUS
10
31.1
20
-7
11
45.1
21
-7
0
LINE
8
0
6
CONTINUOUS
10
45.1
20
-7
11
45.1
21
7
0
LINE
8
0
6
CONTINUOUS
10
45.1
20
7
11
31.1
21
7
0
LINE
8
0
6
CONTINUOUS
10
31.1
20
7
11
31.1
21
-7
0
LINE
8
0
6
CONTINUOUS
10
31.1
20
12.05
11
45.1
21
12.05
0
LINE
8
0
6
CONTINUOUS
10
45.1
20
12.05
11
45.1
21
26.05
0
LINE
8
0
6
CONTINUOUS
10
45.1
20
26.05
11
31.1
21
26.05
0
LINE
8
0
6
CONTINUOUS
10
31.1
20
26.05
11
31.1
21
12.05
0
LINE
8
0
6
CONTINUOUS
10
50.15
20
-7
11
64.15
21
-7
0
LINE
8
0
6
CONTINUOUS
10
64.15
20
-7
11
64.15
21
7
0
LINE
8
0
6
CONTINUOUS
10
64.15
20
7
11
50.15
21
7
0
LINE
8
0
6
CONTINUOUS
10
50.15
20
7
11
50.15
21
-7
0
LINE
8
0
6
CONTINUOUS
10
50.15
20
21.575
11
64.15
21
21.575
0
LINE
8
0
6
CONTINUOUS
10
64.15
20
21.575
11
64.15
21
35.575
0
LINE
8
0
6
CONTINUOUS
10
64.15
20
35.575
11
50.15
21
35.575
0
LINE
8
0
6
CONTINUOUS
10
50.15
20
35.575
11
50.15
21
21.575
0
ENDSEC
0
EOF